<mxfile host="app.diagrams.net" modified="2023-06-11T02:20:16.909Z" agent="Mozilla/5.0 (Windows NT 10.0; Win64; x64; rv:109.0) Gecko/20100101 Firefox/113.0" etag="11J9hsECisdMljZz3TSU" version="21.3.7" type="github">
  <diagram id="Ydjt17omFjmYSwMo58D4" name="第 1 页">
    <mxGraphModel dx="1221" dy="733" grid="0" gridSize="10" guides="1" tooltips="1" connect="1" arrows="1" fold="1" page="1" pageScale="1" pageWidth="1227" pageHeight="1569" math="0" shadow="0">
      <root>
        <mxCell id="0" />
        <mxCell id="1" parent="0" />
      </root>
    </mxGraphModel>
  </diagram>
</mxfile>
